<?xml version="1.0" encoding="utf-8"?>
<!-- Generator: Adobe Illustrator 21.1.0, SVG Export Plug-In . SVG Version: 6.00 Build 0)  -->
<svg version="1.1" id="Layer_1" xmlns="http://www.w3.org/2000/svg" xmlns:xlink="http://www.w3.org/1999/xlink" x="0px" y="0px"
	 viewBox="0 0 142.5 28.1" style="enable-background:new 0 0 142.5 28.1;" xml:space="preserve">
<style type="text/css">
	.st0{fill:#FFFFFF;}
</style>
<g>
	<g>
		<polygon class="st0" points="95.2,7 95.2,14 88.2,14 95.2,7 102.2,12.7 102.2,0 95.2,0 88.2,7 81.1,14 81.1,21.1 95.2,21.1 
			95.2,28.1 105.7,17.6 		"/>
	</g>
	<g>
		<polygon class="st0" points="127.3,7.8 127.3,24.7 122.1,24.7 122.1,7.8 116.1,7.8 116.1,3.4 133.3,3.4 133.3,7.8 		"/>
		<rect x="109.2" y="3.4" class="st0" width="5.2" height="21.3"/>
	</g>
	<g>
		<path class="st0" d="M77.6,24.5v-9.2c0-0.7-0.1-1.5-0.3-2.2c-0.2-0.7-1-3.5-5.2-3.5c-2.9,0-4.3,0.7-4.3,0.7h-0.1v-7h-4.9v21.3h4.9
			v-8.1c0-0.9,0.2-1.7,0.7-2.3s1.1-0.9,2-0.9c0.4,0,0.8,0.1,1.1,0.3c0.3,0.2,0.5,0.4,0.7,0.7s0.3,0.6,0.3,1c0.1,0.4,0.1,0.8,0.1,1.2
			v8.1L77.6,24.5L77.6,24.5z"/>
		<path class="st0" d="M58.3,14.4c-0.3-0.4-0.7-0.6-1.1-0.9c-0.5-0.2-1-0.3-1.5-0.3s-1,0.1-1.4,0.3s-0.8,0.5-1.1,0.8
			s-0.5,0.7-0.7,1.2s-0.3,0.9-0.3,1.4s0.1,1,0.2,1.4c0.2,0.5,0.4,0.8,0.7,1.2c0.3,0.3,0.7,0.6,1.1,0.8c0.4,0.2,0.9,0.3,1.5,0.3
			c0.5,0,1-0.1,1.5-0.3c0.5-0.2,0.9-0.5,1.2-0.8l2.7,3.3c-0.6,0.6-1.4,1.1-2.4,1.4s-2,0.5-3.1,0.5c-1.2,0-2.3-0.2-3.3-0.5
			c-1-0.4-1.9-0.9-2.7-1.5c-0.8-0.7-1.3-1.5-1.8-2.5c-0.4-1-0.6-2.1-0.6-3.3s0.2-2.3,0.6-3.2c0.4-1,1-1.8,1.8-2.5s1.6-1.2,2.7-1.6
			c1-0.4,2.1-0.5,3.3-0.5c0.5,0,1.1,0,1.6,0.1s1,0.2,1.5,0.4s0.9,0.4,1.4,0.6c0.4,0.2,0.8,0.5,1.1,0.8L58.3,14.4z"/>
		<path class="st0" d="M40.8,24.5v-2.1h-0.1c-0.2,0.3-1.2,2.1-4.5,2.1s-5-2.7-5.2-3.5c-0.2-0.7-0.3-1.5-0.3-2.2V9.6h5v8.1
			c0,0.4,0,0.8,0.1,1.2c0.1,0.4,0.2,0.7,0.3,1c0.2,0.3,0.4,0.5,0.7,0.7s0.7,0.3,1.1,0.3c0.9,0,1.5-0.3,2-1c0.5-0.6,0.7-1.4,0.7-2.3
			v-8h4.9v15h-4.7V24.5z"/>
		<path class="st0" d="M28.4,13.7c-0.4-1-1-1.8-1.8-2.4c-0.8-0.7-1.6-1.2-2.6-1.5c-1-0.4-2.1-0.5-3.2-0.5s-2.2,0.2-3.2,0.5
			c-1,0.4-1.9,0.9-2.6,1.5c-0.8,0.7-1.3,1.5-1.8,2.4c-0.4,1-0.7,2-0.7,3.2s0.2,2.3,0.7,3.3c0.4,1,1,1.8,1.8,2.5s1.6,1.2,2.6,1.6
			s2.1,0.6,3.2,0.6s2.2-0.2,3.2-0.6s1.9-0.9,2.6-1.6c0.8-0.7,1.4-1.5,1.8-2.5s0.7-2.1,0.7-3.3C29,15.8,28.8,14.7,28.4,13.7z
			 M24.1,18.4c-0.2,0.5-0.4,0.9-0.7,1.2c-0.3,0.4-0.7,0.7-1.1,0.9c-0.4,0.2-1,0.3-1.5,0.3c-0.6,0-1.1-0.1-1.5-0.3
			c-0.4-0.2-0.8-0.5-1.1-0.9c-0.3-0.4-0.5-0.8-0.7-1.2c-0.2-0.5-0.2-0.9-0.2-1.4s0.1-0.9,0.2-1.4c0.2-0.5,0.4-0.8,0.7-1.2
			c0.3-0.3,0.7-0.6,1.1-0.8s1-0.3,1.5-0.3c0.6,0,1.1,0.1,1.5,0.3s0.8,0.5,1.1,0.8c0.3,0.3,0.5,0.7,0.7,1.2s0.2,0.9,0.2,1.4
			S24.2,17.9,24.1,18.4z"/>
		<path class="st0" d="M7.2,13.2v5.7c0,0.7,0.1,1.2,0.4,1.6S8.4,21,9.1,21c0.2,0,0.5,0,0.8-0.1c0.3,0,0.5-0.1,0.7-0.2l0.1,3.3
			c0,0-1.4,0.4-2.9,0.4c-3.8,0-4.9-2.1-5-2.8c-0.2-0.7-0.3-1.4-0.3-2.2v-6.3H0V9.6h2.4v-4h4.8v3.9h3.5v3.7H7.2z"/>
	</g>
</g>
</svg>
